<svg width="616" height="420" viewBox="0 0 616 420" fill="none" xmlns="http://www.w3.org/2000/svg">
<path d="M3.34375 418.392L187.534 267.724H428.83L613.027 418.392H3.34375Z" stroke="#E8EAED" stroke-width="1.75" stroke-miterlimit="10"/>
<path d="M125.803 418.392L236.002 267.724H380.373L490.572 418.392H125.803Z" stroke="#E8EAED" stroke-width="1.75" stroke-miterlimit="10"/>
<path d="M136.805 309.223H479.567M69.8698 363.973H546.503M242.781 418.392L282.298 267.724H334.073L373.59 418.392H242.781ZM613.027 1.04004L428.83 151.71H187.534L3.34375 1.04104L613.027 1.04004Z" stroke="#E8EAED" stroke-width="1.75" stroke-miterlimit="10"/>
<path d="M490.572 1.04004L380.373 151.71H236.002L125.803 1.04104L490.572 1.04004Z" stroke="#E8EAED" stroke-width="1.75" stroke-miterlimit="10"/>
<path d="M479.567 110.21H136.805M546.503 55.46H69.8691M373.59 1.04004L334.073 151.71H282.298L242.781 1.04104L373.59 1.04004Z" stroke="#E8EAED" stroke-width="1.75" stroke-miterlimit="10"/>
<path d="M383.274 209.435L336.717 236.32C325.764 242.647 322.003 256.662 328.33 267.629C334.656 278.597 348.657 282.344 359.625 276.017L440.071 229.546L383.274 209.427V209.435Z" fill="#FFBB01" stroke="#202124" stroke-width="1.75" stroke-miterlimit="10"/>
<path d="M348.196 140.323C340.284 140.323 332.581 144.438 328.337 151.795C322.01 162.762 325.757 176.778 336.724 183.105L417.171 229.575C428.138 235.902 442.139 232.155 448.466 221.188C454.793 210.22 451.046 196.205 440.078 189.878L359.632 143.407C356.158 141.389 352.213 140.326 348.196 140.323Z" fill="#38A852" stroke="#202124" stroke-width="1.75" stroke-miterlimit="10"/>
<path d="M268.159 140.323C264.267 140.323 260.333 141.318 256.723 143.407L176.276 189.878L232.353 210.422L279.63 183.105C290.583 176.778 294.345 162.762 288.018 151.795C283.781 144.445 276.078 140.323 268.159 140.323Z" fill="#FF5145" stroke="#202124" stroke-width="1.75" stroke-miterlimit="10"/>
<path d="M187.756 186.787C179.843 186.787 172.14 190.887 167.896 198.258C161.569 209.226 165.316 223.241 176.284 229.568L256.73 276.039C267.683 282.366 281.699 278.619 288.026 267.651C294.352 256.684 290.605 242.668 279.638 236.342L199.177 189.871C195.71 187.851 191.769 186.787 187.756 186.787Z" fill="#428EFF" stroke="#202124" stroke-width="1.75" stroke-miterlimit="10"/>
</svg>
