<svg width="164" height="147" viewBox="0 0 164 147" fill="none" xmlns="http://www.w3.org/2000/svg">
<path d="M20.2402 110.804C20.2402 110.036 20.1962 109.276 20.1882 108.524L20.3002 108.636C18.4842 108.656 16.6642 108.7 14.8482 108.704L9.39619 108.728L9.6002 108.524V113.132L9.4162 112.948C10.3122 112.948 11.2082 112.948 12.1122 112.972L14.8002 113L20.3002 113.116L20.2402 110.804ZM14.8962 113.244L12.1522 113.292C11.2362 113.292 10.3162 113.292 9.39619 113.316H9.2002V113.132V108.524V108.316H9.40819L14.8602 108.344C16.6762 108.344 18.4962 108.388 20.3122 108.412H20.4002V108.524C20.4002 109.304 20.3642 110.084 20.3482 110.852L20.2882 113.132L14.8962 113.244Z" fill="#EBEBEB"/>
<path d="M14.1602 116.6C14.1402 115.832 14.1122 115.076 14.1042 114.32L14.2162 114.432C12.4002 114.456 10.5842 114.5 8.76421 114.5L3.31221 114.528L3.52021 114.32L3.49621 118.928L3.31221 118.744C4.21221 118.744 5.10821 118.744 6.00821 118.768L8.71621 118.816L14.2162 118.928L14.1602 116.6ZM8.80021 119.056L6.05621 119.1C5.14021 119.12 4.22021 119.1 3.30021 119.124H3.11621V118.936V114.328V114.124H3.32421L8.77621 114.148C10.5962 114.148 12.4122 114.196 14.2282 114.216H14.3442V114.324C14.3442 115.124 14.3082 115.884 14.2922 116.652L14.2322 118.932L8.80021 119.056Z" fill="#EBEBEB"/>
<path d="M26.3245 116.6C26.3245 115.832 26.2765 115.076 26.2685 114.32L26.3845 114.432C24.5645 114.456 22.7485 114.5 20.9325 114.5L15.4805 114.528L15.6845 114.32L15.6605 118.928L15.4805 118.744C16.3765 118.744 17.2725 118.744 18.1725 118.768L20.8845 118.816L26.3845 118.928L26.3245 116.6ZM20.9765 119.044L18.2365 119.088C17.3205 119.108 16.3965 119.088 15.4805 119.112H15.2965V118.924L15.2725 114.316V114.112H15.4805L20.9325 114.136C22.7485 114.136 24.5645 114.184 26.3845 114.204H26.4965V114.312C26.4965 115.112 26.4605 115.872 26.4405 116.64L26.3845 118.92L20.9765 119.044Z" fill="#EBEBEB"/>
<path d="M154.641 116.6C154.621 115.832 154.593 115.076 154.585 114.32L154.697 114.432C152.881 114.456 151.065 114.5 149.245 114.5L143.793 114.528L144.001 114.32L143.977 118.928L143.793 118.744C144.693 118.744 145.589 118.744 146.489 118.768L149.201 118.816L154.697 118.928L154.641 116.6ZM149.293 119.044L146.553 119.088C145.633 119.108 144.713 119.088 143.793 119.112H143.601V118.924V114.332V114.128H143.805L149.257 114.152C151.077 114.152 152.893 114.2 154.709 114.22H154.801V114.328C154.801 115.128 154.765 115.888 154.745 116.656L154.685 118.936L149.293 119.044Z" fill="#EBEBEB"/>
<path d="M154.641 3.00008C154.621 2.23208 154.593 1.47608 154.585 0.720076L154.697 0.832077C152.881 0.852077 151.065 0.896076 149.245 0.900076L143.793 0.924077L144.001 0.720076L143.977 5.32808L143.793 5.14408C144.693 5.14408 145.589 5.14408 146.489 5.16808L149.201 5.21208L154.697 5.32808L154.641 3.00008ZM149.293 5.44408L146.553 5.48808C145.633 5.50808 144.713 5.48808 143.793 5.51208H143.601V5.32808V0.736076V0.528076H143.805L149.257 0.552077C151.077 0.552077 152.893 0.600076 154.709 0.620076H154.801V0.732077C154.801 1.51208 154.765 2.29208 154.745 3.06008L154.685 5.34008L149.293 5.44408Z" fill="#EBEBEB"/>
<path d="M160.724 8.82416C160.704 8.06016 160.676 7.30016 160.668 6.54816L160.78 6.66016C158.964 6.66016 157.144 6.72416 155.328 6.72416L149.876 6.75216L150.08 6.54816L150.06 11.1522L149.876 10.9722C150.776 10.9722 151.672 10.9722 152.572 10.9722L155.28 11.0202L160.78 11.1322L160.724 8.82416ZM155.376 11.2682L152.632 11.3162C151.716 11.3162 150.796 11.3162 149.876 11.3162H149.692V11.1282L149.672 6.52416V6.31616H149.88L155.332 6.34416C157.148 6.34416 158.968 6.38816 160.784 6.40816H160.9V6.52016C160.9 7.30016 160.864 8.07616 160.848 8.84816L160.8 11.1522L155.376 11.2682Z" fill="#EBEBEB"/>
<path d="M14.1602 3.02013C14.1402 2.25213 14.1122 1.49613 14.1042 0.740132L14.2162 0.852133C12.4002 0.876133 10.5842 0.920132 8.76421 0.920132L3.31221 0.948132L3.52021 0.740132L3.49621 5.34813L3.31221 5.16413C4.21221 5.16413 5.10821 5.16413 6.00821 5.18813L8.71621 5.23213L14.2162 5.34813L14.1602 3.02013ZM8.80021 5.46413L6.05621 5.50813C5.14021 5.50813 4.22021 5.50813 3.30021 5.53213H3.11621V5.34813V0.740132V0.536133H3.32421L8.77621 0.560133C10.5962 0.560133 12.4122 0.608133 14.2282 0.628133H14.3442V0.740132C14.3442 1.54013 14.3082 2.30013 14.2922 3.06813L14.2322 5.34813L8.80021 5.46413Z" fill="#EBEBEB"/>
<path d="M99.7606 81.688C99.7806 82.452 99.8086 83.212 99.8166 83.968L99.7046 83.852C101.521 83.832 103.341 83.788 105.157 83.788L110.609 83.76L110.401 83.968L110.425 79.36L110.609 79.54C109.709 79.54 108.813 79.54 107.913 79.54L105.205 79.492L99.7046 79.38L99.7606 81.688ZM105.109 79.244L107.853 79.196C108.769 79.196 109.689 79.196 110.609 79.176H110.801V79.364V83.972V84.176H110.593L105.141 84.148C103.325 84.148 101.505 84.104 99.6886 84.084H99.6006V83.976C99.6006 83.176 99.6366 82.416 99.6526 81.644L99.7126 79.368L105.109 79.244Z" fill="#EBEBEB"/>
<path d="M105.845 75.876C105.865 76.644 105.893 77.4 105.901 78.156L105.789 78.044C107.605 78.024 109.421 77.98 111.241 77.976L116.693 77.952L116.485 78.156L116.509 73.548L116.693 73.732C115.793 73.732 114.897 73.732 113.997 73.708L111.285 73.664L105.789 73.548L105.845 75.876ZM111.201 73.432L113.941 73.388C114.857 73.368 115.781 73.388 116.701 73.364H116.881V73.548L116.905 78.156V78.364H116.701L111.249 78.34C109.429 78.34 107.613 78.292 105.797 78.272H105.681V78.16C105.681 77.38 105.717 76.6 105.737 75.832L105.797 73.552L111.201 73.432Z" fill="#EBEBEB"/>
<path d="M120.576 6.46411L91.3438 40.9121L135.796 49.0041L120.576 6.46411Z" fill="#EBEBEB"/>
<path d="M119.565 12.04L96.6807 39.004L131.477 45.336L119.565 12.04Z" fill="white"/>
<path d="M116.212 20.436L119.74 21.08L117.136 34.024L114.088 33.472L116.212 20.436Z" fill="#EBEBEB"/>
<path d="M116.83 35.663L113.784 35.1084L113.23 38.1543L116.275 38.7089L116.83 35.663Z" fill="#EBEBEB"/>
<path d="M39.2841 85.2322L28.2041 112.296L57.1801 108.36L39.2841 85.2322Z" fill="#EBEBEB"/>
<path d="M39.7765 88.8682L31.1045 110.052L53.7845 106.972L39.7765 88.8682Z" fill="white"/>
<path d="M39.4004 94.708L41.6964 94.396L42.6924 102.884L40.7044 103.156L39.4004 94.708Z" fill="#EBEBEB"/>
<path d="M42.8276 103.952L40.8418 104.221L41.1113 106.207L43.0971 105.937L42.8276 103.952Z" fill="#EBEBEB"/>
<path d="M82.0004 146.8C120.026 146.8 150.852 144.217 150.852 141.032C150.852 137.846 120.026 135.264 82.0004 135.264C43.9745 135.264 13.1484 137.846 13.1484 141.032C13.1484 144.217 43.9745 146.8 82.0004 146.8Z" fill="#EBEBEB"/>
<path d="M145.264 118.008C145.264 118.008 148.536 106.276 151.144 102.292C153.752 98.308 158.62 93.928 158.62 93.928C158.62 93.928 158.508 112.02 145.264 118.008Z" fill="#E74436"/>
<path d="M144.252 119.068C144.252 119.068 150.128 108.248 148.42 97.7599C146.712 87.2719 144.888 83.5359 144.888 83.5359C144.888 83.5359 135.652 99.8479 144.252 119.068Z" fill="#E74436"/>
<path d="M141.84 102.06C142.337 105.032 143.096 107.954 144.108 110.792C144.108 106.944 144.2 103.096 144.3 99.2479C143.643 96.911 143.273 94.5025 143.2 92.0759C143.2 92.0039 143.304 92.0119 143.308 92.0759C143.495 94.1551 143.84 96.2171 144.34 98.2439C144.428 95.0679 144.531 91.8932 144.648 88.7199C144.648 88.6679 144.732 88.6679 144.732 88.7199C144.732 93.6799 144.732 98.6399 144.7 103.604C145.416 101.686 145.985 99.7164 146.4 97.7119H146.436C146.198 100.021 145.613 102.281 144.7 104.416C144.676 107.588 144.644 110.76 144.572 113.928C145.568 110.556 146.628 107.292 146.916 103.732C146.919 103.724 146.924 103.717 146.931 103.712C146.938 103.707 146.946 103.704 146.954 103.704C146.963 103.704 146.971 103.707 146.978 103.712C146.985 103.717 146.99 103.724 146.992 103.732C146.912 107.66 145.9 111.648 144.592 115.332C144.578 115.367 144.556 115.398 144.528 115.424C144.496 116.58 144.464 117.74 144.424 118.9C144.424 118.934 144.411 118.966 144.387 118.99C144.363 119.014 144.33 119.028 144.296 119.028C144.262 119.028 144.23 119.014 144.206 118.99C144.182 118.966 144.168 118.934 144.168 118.9C144.12 116.528 144.104 114.156 144.108 111.788C142.829 108.683 142.047 105.396 141.792 102.048C141.788 102.036 141.836 102.028 141.84 102.06Z" fill="#263238"/>
<path d="M142.244 100.384C142.445 101.327 142.579 102.282 142.644 103.244C142.644 103.276 142.596 103.28 142.588 103.244C142.36 102.307 142.2 101.356 142.108 100.396C142.104 100.328 142.228 100.312 142.244 100.384Z" fill="#263238"/>
<path d="M145.68 92.4758C145.68 92.4438 145.732 92.4558 145.736 92.4758C145.728 93.1436 145.628 93.8071 145.44 94.4478C145.437 94.4584 145.43 94.4673 145.42 94.4726C145.41 94.4778 145.399 94.479 145.388 94.4758C145.378 94.4726 145.369 94.4654 145.363 94.4556C145.358 94.4459 145.357 94.4344 145.36 94.4238C145.488 93.7998 145.568 93.1278 145.68 92.4758Z" fill="#263238"/>
<path d="M142.108 119.896C142.108 119.896 142.348 108.6 139.108 102.988C135.868 97.3759 130.496 94.5159 130.496 94.5159C130.496 94.5159 132.664 114.42 142.108 119.896Z" fill="#E74436"/>
<path d="M136.204 110.236C137.512 112.208 138.984 114.067 140.604 115.792C139.96 113.484 139.208 111.216 138.364 108.992C136.548 107.392 134.744 105.748 133.632 103.568C133.631 103.565 133.629 103.561 133.629 103.557C133.629 103.553 133.629 103.549 133.63 103.546C133.631 103.542 133.633 103.538 133.636 103.535C133.638 103.532 133.641 103.53 133.644 103.528C133.648 103.526 133.652 103.525 133.655 103.525C133.659 103.524 133.663 103.525 133.667 103.526C133.671 103.527 133.674 103.529 133.677 103.531C133.68 103.534 133.683 103.537 133.684 103.54C134.884 105.468 136.484 107.012 138.172 108.496C136.871 105.133 135.364 101.854 133.66 98.676C133.653 98.6597 133.652 98.6412 133.657 98.6241C133.662 98.607 133.674 98.5925 133.69 98.5835C133.705 98.5745 133.723 98.5716 133.741 98.5754C133.759 98.5792 133.774 98.5894 133.784 98.604C134.821 100.27 135.765 101.991 136.612 103.76C136.308 102.56 136.064 101.316 135.756 100.12C135.756 100.084 135.792 100.072 135.808 100.12C136.444 101.66 136.89 103.272 137.136 104.92C138.263 107.409 139.211 109.976 139.972 112.6C139.888 110.904 139.784 109.22 139.608 107.532C139.608 107.5 139.66 107.492 139.664 107.532C140.026 109.406 140.191 111.312 140.156 113.22C140.623 114.903 141.015 116.604 141.332 118.324C141.332 118.334 141.329 118.343 141.322 118.349C141.315 118.356 141.306 118.36 141.296 118.36C141.287 118.36 141.278 118.356 141.271 118.349C141.264 118.343 141.26 118.334 141.26 118.324C141.084 117.608 140.892 116.892 140.696 116.18C140.696 116.18 140.672 116.18 140.66 116.18C138.857 114.454 137.347 112.447 136.188 110.236C136.188 110.236 136.2 110.224 136.204 110.236Z" fill="#263238"/>
<path d="M132.452 101.048C132.812 101.448 133.144 101.848 133.492 102.248C133.831 102.587 134.142 102.952 134.424 103.34C134.424 103.34 134.424 103.372 134.4 103.364C133.995 103.06 133.633 102.702 133.324 102.3C132.982 101.927 132.673 101.526 132.4 101.1C132.4 101.056 132.428 101.02 132.452 101.048Z" fill="#263238"/>
<path d="M151.736 118.516L151.336 122.116L150.104 133.06H139.364L138.132 122.116L137.732 118.516H151.732H151.736Z" fill="#455A64"/>
<path d="M151.736 118.516L151.336 122.116H138.136L137.736 118.516H151.736Z" fill="#37474F"/>
<path d="M136.769 119.992H152.685V115.892H136.769V119.992Z" fill="#455A64"/>
<path d="M163.092 133.052L142.82 133.148L122.544 133.184L82.0002 133.252L41.4562 133.184L21.1802 133.148L0.908203 133.052L21.1802 132.952L41.4562 132.92L82.0002 132.852L122.544 132.92L142.82 132.956L163.092 133.052Z" fill="#263238"/>
<path d="M104.464 49.8C104.503 53.2123 103.912 56.6024 102.72 59.8C101.633 62.7184 99.9922 65.3995 97.8885 67.696C95.8313 69.9224 93.3311 71.6937 90.5485 72.896C87.6356 74.1196 84.5079 74.7498 81.3485 74.7498C78.189 74.7498 75.0614 74.1196 72.1485 72.896C69.3825 71.6868 66.898 69.9161 64.8525 67.696C62.7502 65.3998 61.1121 62.7185 60.0285 59.8C57.6949 53.3375 57.6949 46.2625 60.0285 39.8C61.1164 36.8818 62.757 34.2008 64.8605 31.904C66.9761 29.643 69.5334 27.8406 72.374 26.6083C75.2147 25.3761 78.2781 24.7402 81.3745 24.7402C84.4709 24.7402 87.5343 25.3761 90.3749 26.6083C93.2155 27.8406 95.7729 29.643 97.8885 31.904C99.9905 34.2018 101.631 36.8825 102.72 39.8C103.911 42.9978 104.503 46.3878 104.464 49.8ZM92.4005 49.8C92.4221 47.7576 92.1528 45.7225 91.6005 43.756C91.1314 42.0543 90.359 40.4513 89.3205 39.024C88.3974 37.7622 87.2044 36.7223 85.8285 35.98C84.4624 35.2625 82.9395 34.8955 81.3965 34.912C79.8247 34.8889 78.2717 35.2558 76.8765 35.98C75.5025 36.7235 74.3111 37.7633 73.3885 39.024C72.3487 40.4511 71.5749 42.0541 71.1045 43.756C70.5522 45.7225 70.2828 47.7576 70.3045 49.8C70.2812 51.8281 70.5507 53.8489 71.1045 55.8C71.5815 57.4858 72.3549 59.0733 73.3885 60.488C74.31 61.7497 75.5017 62.7897 76.8765 63.532C78.2717 64.2562 79.8247 64.6231 81.3965 64.6C82.9395 64.6166 84.4624 64.2496 85.8285 63.532C87.2053 62.791 88.3985 61.7508 89.3205 60.488C90.3527 59.073 91.1247 57.4856 91.6005 55.8C92.1543 53.8489 92.4238 51.8281 92.4005 49.8Z" fill="#E74436"/>
<path d="M69.2 15V16.4H63.5V8.19995H69.1V9.59595H65.1V11.572H68.552V12.864H65.1V15H69.2Z" fill="#263238"/>
<path d="M70.4404 16.3919V8.19993H74.0644C74.4275 8.19492 74.7866 8.27578 75.1124 8.43592C75.4255 8.58769 75.7055 8.79974 75.9364 9.05993C76.1685 9.31719 76.3527 9.61385 76.4804 9.93592C76.609 10.2495 76.6756 10.585 76.6764 10.9239C76.6832 11.4348 76.5445 11.937 76.2764 12.3719C76.0267 12.794 75.6482 13.1249 75.1964 13.3159L77.0684 16.3999H75.2804L73.6004 13.6399H72.0284V16.3919H70.4404ZM72.0404 12.2439H74.0404C74.1803 12.2428 74.3177 12.2071 74.4404 12.1399C74.5696 12.0692 74.6826 11.9725 74.7724 11.8559C74.8659 11.7354 74.9389 11.6002 74.9884 11.4559C75.045 11.2884 75.0733 11.1127 75.0724 10.9359C75.0735 10.7545 75.0423 10.5744 74.9804 10.4039C74.9186 10.2579 74.8335 10.1228 74.7284 10.0039C74.6297 9.88772 74.5086 9.79251 74.3724 9.72393C74.2476 9.66328 74.1111 9.63052 73.9724 9.62793H72.0444L72.0404 12.2439Z" fill="#263238"/>
<path d="M78.1201 16.3919V8.19993H81.7441C82.1072 8.19492 82.4663 8.27578 82.7921 8.43592C83.0987 8.58709 83.3731 8.79629 83.6001 9.05193C83.8322 9.30919 84.0164 9.60585 84.1441 9.92793C84.2727 10.2415 84.3393 10.577 84.3401 10.9159C84.3469 11.4268 84.2082 11.929 83.9401 12.3639C83.6904 12.786 83.3118 13.1169 82.8601 13.3079L84.7321 16.3919H82.9601L81.2841 13.6399H79.7121V16.3919H78.1201ZM79.7201 12.2439H81.7201C81.86 12.2428 81.9974 12.2071 82.1201 12.1399C82.2492 12.0692 82.3623 11.9725 82.4521 11.8559C82.5456 11.7354 82.6186 11.6002 82.6681 11.4559C82.7247 11.2884 82.753 11.1127 82.7521 10.9359C82.7532 10.7545 82.722 10.5744 82.6601 10.4039C82.5997 10.258 82.5159 10.1229 82.4121 10.0039C82.312 9.88754 82.1896 9.79234 82.0521 9.72393C81.9273 9.66328 81.7908 9.63052 81.6521 9.62793H79.7241L79.7201 12.2439Z" fill="#263238"/>
<path d="M89.3009 16.448C88.7359 16.4566 88.1764 16.3362 87.6649 16.096C87.1868 15.8689 86.7575 15.551 86.4009 15.16C85.6965 14.3703 85.3053 13.3502 85.3009 12.292C85.2972 11.7534 85.3991 11.2194 85.6009 10.72C85.8028 10.2321 86.0914 9.78491 86.4529 9.40002C86.8146 9.01364 87.248 8.70118 87.7289 8.48002C88.2309 8.25102 88.7771 8.13495 89.3289 8.14002C89.8913 8.13194 90.4477 8.25665 90.9529 8.50402C91.4283 8.73671 91.8536 9.06011 92.2049 9.45602C92.5503 9.85073 92.8213 10.3047 93.0049 10.796C93.3997 11.7889 93.3997 12.8952 93.0049 13.888C92.808 14.3727 92.5262 14.8183 92.1729 15.204C91.812 15.5876 91.38 15.8973 90.9009 16.116C90.3982 16.3423 89.8521 16.4556 89.3009 16.448ZM86.9209 12.292C86.9193 12.6397 86.9734 12.9854 87.0809 13.316C87.1824 13.6352 87.341 13.9334 87.5489 14.196C87.7553 14.4491 88.0112 14.6573 88.3009 14.808C88.6146 14.9657 88.9618 15.0453 89.3129 15.04C89.6671 15.0463 90.0174 14.9653 90.3329 14.804C90.6254 14.6488 90.8817 14.4334 91.0849 14.172C91.2898 13.9072 91.4456 13.6078 91.5449 13.288C91.648 12.9661 91.7006 12.6301 91.7009 12.292C91.7021 11.9424 91.6453 11.5951 91.5329 11.264C91.4295 10.9448 91.2697 10.6467 91.0609 10.384C90.8545 10.1382 90.5982 9.93907 90.3089 9.80002C90 9.64501 89.6584 9.5668 89.3129 9.57202C88.9561 9.56568 88.6032 9.6467 88.2849 9.80802C87.993 9.96068 87.7367 10.1733 87.5329 10.432C87.3303 10.6963 87.176 10.9942 87.0769 11.312C86.9755 11.6289 86.9229 11.9593 86.9209 12.292Z" fill="#263238"/>
<path d="M94.5322 16.3919V8.19993H98.1562C98.5193 8.19492 98.8784 8.27578 99.2042 8.43592C99.5166 8.58875 99.7965 8.80065 100.028 9.05993C100.26 9.31719 100.445 9.61385 100.572 9.93592C100.73 10.3298 100.794 10.7552 100.759 11.1781C100.723 11.601 100.59 12.0098 100.368 12.3719C100.119 12.794 99.74 13.1249 99.2882 13.3159L101.16 16.3999H99.3682L97.6962 13.6479H96.1242V16.3999L94.5322 16.3919ZM96.1322 12.2439H98.1322C98.272 12.2423 98.4093 12.2066 98.5322 12.1399C98.6609 12.0702 98.7728 11.9733 98.8602 11.8559C98.9564 11.7365 99.0308 11.6011 99.0802 11.4559C99.1368 11.2884 99.1652 11.1127 99.1642 10.9359C99.166 10.7541 99.1334 10.5736 99.0682 10.4039C99.0092 10.2573 98.9253 10.122 98.8202 10.0039C98.7215 9.88772 98.6004 9.79251 98.4642 9.72393C98.3394 9.66328 98.203 9.63052 98.0642 9.62793H96.1362L96.1322 12.2439Z" fill="#263238"/>
<path d="M81.9995 74.916C95.1505 74.916 105.812 63.6067 105.812 49.656C105.812 35.7053 95.1505 24.396 81.9995 24.396C68.8485 24.396 58.1875 35.7053 58.1875 49.656C58.1875 63.6067 68.8485 74.916 81.9995 74.916Z" fill="#E74436"/>
<path opacity="0.1" d="M105.812 49.656C105.812 63.608 95.1516 74.916 81.9996 74.916C71.4156 74.916 62.4516 67.592 59.3516 57.464C64.3156 61.864 74.0036 68.468 85.0556 65.836C97.2636 62.928 102.92 54.124 105.328 44.564C105.65 46.2421 105.812 47.9471 105.812 49.656Z" fill="black"/>
<path opacity="0.1" d="M95.0604 31.676C94.6945 31.3132 94.2924 30.9888 93.8604 30.708L94.9364 30.564C95.0204 30.564 94.9924 30.428 94.9364 30.424C94.442 30.3852 93.945 30.3946 93.4524 30.452C92.764 30.0577 92.0214 29.7666 91.2484 29.588C91.9632 29.3599 92.6912 29.1756 93.4284 29.036C93.5044 29.036 93.4884 28.896 93.4084 28.9C92.5248 28.9665 91.6563 29.1661 90.8324 29.492C90.2954 29.3919 89.7506 29.3397 89.2044 29.336C89.1604 29.336 89.1644 29.4 89.2044 29.404C89.6473 29.4448 90.087 29.5156 90.5204 29.616C90.0354 29.8211 89.565 30.059 89.1124 30.328C88.7417 30.3021 88.3695 30.3101 88.0004 30.352C87.9604 30.352 87.9604 30.416 88.0004 30.412C88.3061 30.3985 88.6124 30.4092 88.9164 30.444C88.4218 30.7501 87.9487 31.0895 87.5004 31.46C87.4684 31.484 87.5004 31.528 87.5404 31.504C88.0421 31.1121 88.5775 30.7654 89.1404 30.468C89.8056 30.5625 90.4579 30.733 91.0844 30.976C90.5564 31.144 90.0324 31.332 89.5204 31.532C89.4844 31.532 89.5004 31.6 89.5204 31.584C90.1216 31.3713 90.738 31.2042 91.3644 31.084C91.9284 31.304 92.4884 31.552 93.0604 31.788C93.1444 31.824 93.2004 31.684 93.1204 31.644C92.6956 31.4046 92.2576 31.1896 91.8084 31C92.3404 30.908 92.8724 30.836 93.4084 30.768C93.9382 31.0735 94.4462 31.4157 94.9284 31.792C95.0244 31.856 95.1364 31.752 95.0604 31.676ZM91.4604 30.876C90.7924 30.6151 90.0931 30.443 89.3804 30.364C89.875 30.1183 90.3855 29.9058 90.9084 29.728C91.6232 29.9195 92.3152 30.1877 92.9724 30.528C92.4623 30.607 91.9574 30.7166 91.4604 30.856V30.876Z" fill="black"/>
<path opacity="0.1" d="M63.6519 48.42C63.7319 48.384 63.6719 48.28 63.5959 48.292C63.2612 48.3513 62.9367 48.4577 62.6319 48.608C62.7455 48.2436 62.879 47.8858 63.0319 47.536C63.0384 47.5169 63.0381 47.4962 63.0311 47.4772C63.0241 47.4583 63.0109 47.4424 62.9935 47.432C62.9762 47.4217 62.9558 47.4177 62.9359 47.4206C62.9159 47.4235 62.8975 47.4332 62.8839 47.448C62.6305 47.8629 62.4367 48.3113 62.3079 48.78C61.8488 49.0506 61.4335 49.3891 61.0759 49.784C61.0981 49.098 61.1961 48.4165 61.3679 47.752C61.3704 47.733 61.366 47.7137 61.3556 47.6977C61.3451 47.6816 61.3292 47.6699 61.3108 47.6645C61.2924 47.6592 61.2727 47.6607 61.2553 47.6686C61.2378 47.6766 61.2238 47.6906 61.2159 47.708C60.9218 48.454 60.7961 49.2558 60.8479 50.056C60.5289 50.4419 60.2601 50.8666 60.0479 51.32C60.0479 51.356 60.0799 51.388 60.0999 51.352C60.3141 50.968 60.5733 50.6109 60.8719 50.288C60.9062 50.6373 60.9664 50.9836 61.0519 51.324C60.8999 51.464 60.7519 51.604 60.6199 51.744C60.5799 51.78 60.6399 51.84 60.6799 51.804C60.8119 51.68 60.9519 51.572 61.0799 51.46C61.1741 51.8021 61.2945 52.1364 61.4399 52.46C61.4399 52.496 61.5159 52.46 61.5039 52.432C61.3729 52.0848 61.2699 51.7277 61.1959 51.364C61.4737 51.1428 61.7663 50.941 62.0719 50.76L62.1279 50.736C62.1501 51.0787 62.1955 51.4195 62.2639 51.756C62.2639 51.796 62.3359 51.776 62.3279 51.756C62.28 51.3995 62.264 51.0394 62.2799 50.68C62.6799 50.476 63.0799 50.308 63.4799 50.092C63.5559 50.048 63.4999 49.948 63.4239 49.96C63.0204 50.0453 62.6339 50.1966 62.2799 50.408C62.3132 49.9364 62.3909 49.469 62.5119 49.012C62.8759 48.792 63.2519 48.6 63.6519 48.42ZM61.1679 51.22C61.1002 50.8477 61.0641 50.4704 61.0599 50.092C61.4072 49.7495 61.7923 49.4476 62.2079 49.192C62.1257 49.6256 62.0934 50.0671 62.1119 50.508C61.7769 50.7142 61.461 50.9498 61.1679 51.212V51.22Z" fill="black"/>
<path d="M72.3999 38.364C68.2239 41.208 66.1559 44.912 66.3999 49.044C66.6439 53.176 63.5559 56.468 63.1999 60.972C62.8439 65.476 65.4959 68.668 65.4959 70.724C65.4959 72.78 63.4639 76.408 63.4639 76.408C63.4639 76.408 67.8959 82.196 80.0879 82.008C92.2799 81.82 98.0239 77.684 98.0239 77.684C98.0239 77.684 96.2599 73.84 96.0799 72.688C95.8999 71.536 98.5759 67.32 98.6519 63.708C98.7279 60.096 95.4839 55.224 95.4759 53.432C95.4679 51.64 95.8519 41.452 88.1079 37.704C85.6448 36.4861 82.9147 35.9081 80.1694 36.0235C77.4241 36.1388 74.7521 36.9438 72.3999 38.364Z" fill="#263238"/>
<path d="M67.712 51.0679C67.792 50.8879 67.58 50.6679 67.44 50.8439C65.2295 53.6179 63.5801 56.7957 62.584 60.1999C61.644 63.4359 62.516 66.5319 64.056 69.3599C64.1 69.4399 64.212 69.3599 64.172 69.2879C62.508 65.9759 62.172 62.7439 63.572 59.2479C64.72 56.3599 66.42 53.8439 67.712 51.0679Z" fill="#263238"/>
<path d="M99.2355 63.6399C98.6835 60.2679 96.6035 56.9319 95.0715 53.9999C95.0511 53.9708 95.0212 53.9498 94.9869 53.9404C94.9526 53.9311 94.9162 53.934 94.8839 53.9488C94.8516 53.9635 94.8254 53.9891 94.81 54.0211C94.7946 54.0531 94.7908 54.0894 94.7995 54.1239C95.7475 56.9479 97.3515 59.4959 98.2195 62.3439C99.1501 65.4572 98.8716 68.8071 97.4395 71.7239C97.3955 71.8159 97.5155 71.8919 97.5675 71.8039C99.0808 69.3692 99.6725 66.4731 99.2355 63.6399Z" fill="#263238"/>
<path d="M98.6279 59.7999C97.0599 57.0799 95.4879 54.1399 94.8919 50.9599C94.8919 50.8879 94.7799 50.9239 94.7919 50.9959C95.2295 53.5736 96.0691 56.0666 97.2799 58.3839C98.6639 61.0199 100.732 63.4679 100.964 66.6159C100.962 66.6242 100.961 66.6329 100.963 66.6414C100.965 66.6499 100.968 66.6578 100.973 66.6647C100.979 66.6715 100.985 66.6771 100.993 66.6809C101.001 66.6847 101.009 66.6867 101.018 66.6867C101.027 66.6867 101.035 66.6847 101.043 66.6809C101.05 66.6771 101.057 66.6715 101.062 66.6647C101.068 66.6578 101.071 66.6499 101.073 66.6414C101.075 66.6329 101.074 66.6242 101.072 66.6159C101.24 63.9639 99.8719 61.9599 98.6279 59.7999Z" fill="#263238"/>
<path d="M66.7043 79.944C53.2723 95.576 37.2283 127.616 41.0443 133.628C45.2923 140.32 64.6803 118.056 63.9843 117.072C63.3923 116.24 69.4963 97.132 73.9243 83.16C78.3523 69.188 70.0283 76.08 66.7043 79.944Z" fill="#D3766A"/>
<path d="M66.7043 79.944C53.2723 95.576 37.2283 127.616 41.0443 133.628C45.2923 140.32 64.6803 118.056 63.9843 117.072C63.3923 116.24 69.4963 97.132 73.9243 83.16C78.3523 69.188 70.0283 76.08 66.7043 79.944Z" fill="#455A64"/>
<path d="M53.8723 131.94L56.2083 117C56.2083 117 50.6963 107.376 53.8963 100.468C55.4963 96.9719 66.5803 79.8759 72.5403 75.5479C78.1403 71.4879 86.6723 75.4799 89.2763 79.0119C96.7683 89.1679 100.648 98.8039 104.832 131.952L53.8723 131.94Z" fill="#455A64"/>
<path d="M85.0518 75.6479C84.8026 76.0312 84.582 76.4323 84.3918 76.8479C84.0934 77.4946 83.8874 78.18 83.7798 78.884C84.2353 78.337 84.611 77.7283 84.8958 77.076C85.0775 76.6614 85.2312 76.2351 85.3558 75.8L85.0518 75.6479ZM77.3118 103.216C77.0098 103.86 76.8023 104.545 76.6958 105.248C77.1527 104.702 77.5285 104.093 77.8118 103.44C78.1107 102.794 78.3167 102.108 78.4238 101.404C77.9685 101.952 77.5941 102.562 77.3118 103.216ZM70.5878 131.172C70.4798 131.424 70.3758 131.68 70.2838 131.94H70.8238C70.9198 131.76 71.0078 131.58 71.0918 131.396C71.3912 130.75 71.5973 130.064 71.7038 129.36C71.249 129.909 70.8734 130.519 70.5878 131.172ZM98.8558 98.736C98.8558 98.756 98.8558 98.772 98.8558 98.792V98.7719C98.8576 98.76 98.8576 98.7479 98.8558 98.736ZM85.2558 127.472C84.9568 128.118 84.7508 128.804 84.6438 129.508C85.5463 128.4 86.1421 127.074 86.3718 125.664C85.9162 126.211 85.5405 126.82 85.2558 127.472ZM56.5878 114.156C56.2888 114.801 56.0828 115.485 55.9758 116.188C56.8783 115.08 57.4741 113.754 57.7038 112.344C57.249 112.893 56.8734 113.503 56.5878 114.156ZM65.9998 93.4359C65.6972 94.0813 65.4897 94.7671 65.3838 95.4719C65.8421 94.9256 66.2181 94.3151 66.4998 93.6599C66.8005 93.0156 67.0066 92.3312 67.1118 91.628C66.6575 92.175 66.2831 92.7837 65.9998 93.4359ZM91.3958 85.704C90.7507 85.405 90.0666 85.199 89.3638 85.092C89.9097 85.5489 90.5186 85.9247 91.1718 86.2079C91.8182 86.5069 92.5036 86.7129 93.2078 86.8199C92.6576 86.3649 92.0463 85.9892 91.3918 85.704H91.3958ZM97.3518 108.904C96.7081 108.601 96.0234 108.395 95.3198 108.292C95.8658 108.748 96.4748 109.122 97.1278 109.404C97.774 109.704 98.4595 109.912 99.1638 110.02C98.6136 109.569 98.0021 109.199 97.3478 108.92L97.3518 108.904ZM64.4758 84.352L64.2958 84.592C64.5053 84.6442 64.7176 84.6843 64.9318 84.712C64.7824 84.5946 64.6291 84.48 64.4718 84.368L64.4758 84.352ZM70.5358 113.152C69.8902 112.851 69.2044 112.645 68.4998 112.54C69.0478 112.995 69.658 113.369 70.3118 113.652C70.9571 113.955 71.6429 114.162 72.3478 114.268C71.7976 113.813 71.1863 113.437 70.5318 113.152H70.5358ZM77.4478 89.256C77.203 88.587 76.8635 87.9566 76.4398 87.3839C76.5883 88.8048 77.1038 90.1626 77.9358 91.324C77.8721 90.6145 77.7064 89.918 77.4438 89.256H77.4478ZM86.9038 113.22C86.662 112.55 86.3238 111.92 85.8998 111.348C86.0483 112.769 86.5638 114.127 87.3958 115.288C87.3322 114.578 87.1651 113.881 86.8998 113.22H86.9038ZM55.4918 97.5839C55.3998 97.7439 55.3038 97.904 55.2118 98.056C55.3571 98.3371 55.5271 98.6049 55.7198 98.856C55.6893 98.4247 55.6115 97.9982 55.4878 97.5839H55.4918ZM61.7958 123.216C61.551 122.547 61.2115 121.917 60.7878 121.344C60.8541 122.053 61.0197 122.749 61.2798 123.412C61.5246 124.081 61.864 124.711 62.2878 125.284C62.2223 124.574 62.0553 123.878 61.7918 123.216H61.7958ZM72.1078 79.4C71.4397 79.6449 70.8094 79.9829 70.2358 80.4039C70.945 80.3393 71.6414 80.1736 72.3038 79.912C72.9733 79.6702 73.604 79.332 74.1758 78.908C73.4664 78.9717 72.7699 79.1374 72.1078 79.4ZM95.7918 121.104C95.1237 121.349 94.4934 121.687 93.9198 122.108C94.634 122.04 95.3345 121.869 95.9998 121.6C96.6693 121.358 97.3 121.02 97.8718 120.596C97.1584 120.659 96.4578 120.825 95.7918 121.088V121.104ZM63.1238 104.6C62.4557 104.845 61.8255 105.183 61.2518 105.604C61.9605 105.539 62.6567 105.375 63.3198 105.116C63.9887 104.871 64.6191 104.532 65.1918 104.108C64.4824 104.172 63.786 104.338 63.1238 104.6ZM76.3238 121.552C75.6557 121.797 75.0255 122.135 74.4518 122.556C75.8726 122.407 77.2304 121.892 78.3918 121.06C77.6884 121.122 76.9975 121.283 76.3398 121.54L76.3238 121.552ZM54.1518 130.068L54.0518 130.688H54.0878C54.7559 130.443 55.3861 130.105 55.9598 129.684C55.3487 129.729 54.7462 129.854 54.1678 130.056L54.1518 130.068ZM88.2518 97.14C87.5828 97.3848 86.9524 97.7242 86.3798 98.1479C87.8006 97.9994 89.1584 97.4839 90.3198 96.652C89.6166 96.7124 88.9257 96.8727 88.2678 97.128L88.2518 97.14Z" fill="#37474F"/>
<path d="M62.7996 86.2799C61.6716 87.8266 60.569 89.3999 59.4916 90.9999C59.7876 90.3799 60.0836 89.7639 60.3716 89.1439C60.3734 89.1354 60.3724 89.1266 60.3687 89.1187C60.3651 89.1108 60.3589 89.1043 60.3512 89.1003C60.3435 89.0962 60.3347 89.0947 60.3261 89.0961C60.3176 89.0975 60.3097 89.1017 60.3036 89.1079C59.9036 89.8839 59.5356 90.6719 59.1756 91.4639C57.733 93.5973 56.3343 95.7626 54.9796 97.9599C54.3916 98.8794 53.8933 99.8532 53.4916 100.868C53.1221 101.865 52.8762 102.903 52.7596 103.96C52.6416 105.013 52.6256 106.076 52.7116 107.132C52.785 108.22 52.9387 109.302 53.1716 110.368C53.4449 111.578 53.8265 112.762 54.3116 113.904C54.5516 114.46 54.8036 115.012 55.0796 115.556C55.3556 116.1 55.8436 117.056 55.8356 117.096C55.7316 117.652 55.6276 118.044 55.5596 118.512L55.3436 119.948C55.1996 120.903 55.0583 121.86 54.9196 122.82C54.6396 124.72 54.3996 126.62 54.1636 128.524C54.0276 129.62 53.9556 130.724 53.8036 131.812C53.8036 131.856 53.8636 131.876 53.8716 131.812C54.0276 130.864 54.2716 129.924 54.4356 128.98C54.5996 128.036 54.7836 127.08 54.9636 126.132C55.3236 124.216 55.6036 122.284 55.9036 120.36C55.9876 119.824 56.0716 119.292 56.1516 118.76C56.2713 118.175 56.3395 117.581 56.3556 116.984C56.3556 116.984 54.6516 113.476 53.9876 111.02C53.6796 109.983 53.4523 108.924 53.3076 107.852C53.1957 106.805 53.1836 105.749 53.2716 104.7C53.3541 103.651 53.5568 102.615 53.8756 101.612C54.2173 100.593 54.6609 99.6103 55.1996 98.6799C56.3116 96.6999 57.4956 94.7599 58.6956 92.8319C60.0596 90.6439 61.4356 88.4679 62.8436 86.3119C62.8836 86.2759 62.8276 86.2439 62.7996 86.2799Z" fill="#263238"/>
<path d="M73.3555 115.12C70.9717 115.232 68.5996 115.524 66.2595 115.992C65.0995 116.236 63.9595 116.536 62.8155 116.86C62.2475 117.024 61.6795 117.164 61.1035 117.304C60.5064 117.469 59.891 117.559 59.2715 117.572C59.2599 117.572 59.2487 117.577 59.2404 117.585C59.2322 117.593 59.2275 117.604 59.2275 117.616C59.2275 117.628 59.2322 117.639 59.2404 117.647C59.2487 117.655 59.2599 117.66 59.2715 117.66C59.854 117.712 60.4394 117.724 61.0235 117.696C61.5884 117.652 62.1497 117.571 62.7035 117.452C63.8795 117.212 65.0475 116.916 66.2275 116.652C68.5995 116.144 70.9715 115.636 73.3795 115.3C73.4875 115.3 73.4675 115.112 73.3555 115.12Z" fill="#263238"/>
<path d="M79.1398 117.464C77.1913 117.177 75.2281 117.003 73.2598 116.94C72.2758 116.912 71.2958 116.94 70.3118 116.992C69.8438 117.02 69.3758 117.056 68.9078 117.096C68.4398 117.136 67.8798 117.252 67.3638 117.288C67.3118 117.288 67.3078 117.376 67.3638 117.376C67.8518 117.356 68.3438 117.416 68.8318 117.424L70.3038 117.444C71.2838 117.444 72.2638 117.488 73.2478 117.496C75.2118 117.496 77.1718 117.544 79.1358 117.624C79.2398 117.628 79.2398 117.476 79.1398 117.464Z" fill="#263238"/>
<path d="M41.3597 134.292C45.4277 138.264 54.3077 137.492 76.8477 137.62C79.9677 137.64 86.0197 115.664 82.6917 115.472C78.4957 115.232 62.1677 115.204 60.9757 115.356C50.8997 116.6 38.5997 131.6 41.3597 134.292Z" fill="#D3766A"/>
<path d="M75.1322 115.916C75.1322 115.916 83.8522 113.34 88.8482 113.404C95.5442 113.492 101.288 116.32 103.624 117.652C108.5 120.432 118.368 130.524 115.96 133.872C113.776 136.904 104.212 126.08 104.212 126.08C104.212 126.08 115.784 135.508 112.484 138.676C109.184 141.844 98.8002 128.644 98.8002 128.644C98.8002 128.644 110.472 138.596 106.556 141.324C103.592 143.388 93.5122 131.964 93.5122 131.964C93.5122 131.964 103.484 140.6 100.532 142.84C97.2682 145.328 87.3002 135.368 87.3002 135.368C78.8282 139.824 72.8682 138.124 68.8162 136.672C67.8362 136.32 75.1322 115.916 75.1322 115.916Z" fill="#D3766A"/>
<path d="M100.399 122.564C101.799 123.62 103.223 124.684 104.523 125.864C105.823 127.044 107.087 128.264 108.271 129.56C111.179 132.736 112.499 135.18 112.403 135.04C110.079 131.68 105.491 127.388 104.187 126.208C102.883 125.028 101.651 123.808 100.355 122.608C100.335 122.6 100.399 122.536 100.399 122.564Z" fill="#263238"/>
<path d="M96.0763 127.184C97.8043 128.612 99.5723 129.984 101.236 131.472C102.9 132.96 104.336 134.536 105.888 136.144C106.008 136.268 105.888 136.292 105.776 136.172C104.176 134.628 102.552 133.324 100.92 131.796C99.2883 130.268 97.7203 128.68 96.0363 127.22C96.0003 127.2 96.0483 127.16 96.0763 127.184Z" fill="#263238"/>
<path d="M91.6363 130.476C94.3883 132.524 96.7603 135.08 99.0283 137.64C99.1403 137.768 99.0003 137.78 98.8763 137.64C96.4763 135.212 94.5883 133.288 91.5643 130.552C91.5163 130.532 91.5763 130.432 91.6363 130.476Z" fill="#263238"/>
<path d="M85.5079 113.32L69.9559 138.404C69.9559 138.404 44.8519 140.064 41.0999 133.904C37.3479 127.744 54.9719 115.616 60.9399 115.324C66.9079 115.032 85.5079 113.32 85.5079 113.32Z" fill="#455A64"/>
<path d="M53.9081 130.148C53.2391 130.393 52.6087 130.732 52.0361 131.156C53.4569 131.008 54.8147 130.492 55.9761 129.66C55.267 129.723 54.5705 129.887 53.9081 130.148ZM76.3401 121.54C75.672 121.785 75.0418 122.123 74.4681 122.544C75.8889 122.396 77.2467 121.88 78.4081 121.048C77.6988 121.112 77.0023 121.278 76.3401 121.54ZM61.7921 123.216C61.5473 122.547 61.2078 121.917 60.7841 121.344C60.8504 122.053 61.016 122.749 61.2761 123.412C61.5209 124.081 61.8603 124.711 62.2841 125.284C62.2199 124.575 62.0542 123.878 61.7921 123.216ZM47.8361 122.448C47.7961 122.344 47.7521 122.244 47.7081 122.144C47.5601 122.26 47.4161 122.38 47.2721 122.5L47.3201 122.64C47.5648 123.31 47.9043 123.942 48.3281 124.516C48.2644 123.807 48.0987 123.11 47.8361 122.448ZM61.6321 137.372C60.9863 137.071 60.3007 136.863 59.5961 136.756C60.142 137.213 60.751 137.589 61.4041 137.872C62.0507 138.17 62.7361 138.376 63.4401 138.484C62.894 138.028 62.2851 137.654 61.6321 137.372ZM44.0321 133.5C43.3867 133.198 42.7009 132.99 41.9961 132.884C42.5424 133.342 43.1529 133.718 43.8081 134C44.4524 134.301 45.1368 134.507 45.8401 134.612C45.2992 134.159 44.6973 133.785 44.0521 133.5H44.0321ZM70.5681 131.172C70.2686 131.818 70.0625 132.504 69.9561 133.208C70.8576 132.098 71.4533 130.771 71.6841 129.36C71.2364 129.91 70.8675 130.52 70.5881 131.172H70.5681Z" fill="#37474F"/>
<path d="M51.7474 119.468C53.0434 118.296 56.7874 115.424 60.9474 115.324C60.9914 115.324 61.0034 115.388 60.9474 115.396C57.6074 115.956 53.1354 118.488 51.7874 119.52C51.7807 119.522 51.7736 119.521 51.7671 119.519C51.7606 119.517 51.7549 119.512 51.7506 119.507C51.7464 119.501 51.7439 119.495 51.7433 119.488C51.7427 119.481 51.7441 119.474 51.7474 119.468Z" fill="#263238"/>
<path d="M65.6001 135.228C71.7241 126.676 76.8601 116.756 77.8761 115.092C77.9241 115.012 77.7921 114.944 77.7481 115.028C76.8361 116.712 69.7481 127.408 65.4601 135.156C65.4081 135.244 65.5401 135.308 65.6001 135.228Z" fill="#263238"/>
<path d="M83.8715 75.704C83.5515 76.636 77.2195 83.472 73.0195 82.128C70.0675 81.18 73.4195 74.684 73.4195 74.684L72.3875 65.884L83.8755 60.156C83.8755 60.156 83.9995 75.312 83.8715 75.704Z" fill="#D3766A"/>
<path d="M83.8994 65.8201C82.8128 67.8662 81.316 69.6664 79.5025 71.1082C77.6891 72.5501 75.5978 73.6026 73.3594 74.2001L72.3994 65.8921L83.8914 60.1641C83.8914 60.1641 83.8874 62.7201 83.8994 65.8201Z" fill="#263238"/>
<path d="M64.1762 50.0241C59.1802 63.6241 66.7722 68.1641 69.7082 69.2241C72.3722 70.2001 81.5762 73.1801 87.9482 60.1561C94.3202 47.1321 89.5682 40.5041 83.5882 37.9561C77.6082 35.4081 69.1682 36.4121 64.1762 50.0241Z" fill="#D3766A"/>
<path d="M68.4755 48.1321C68.8031 48.0633 69.1343 48.0125 69.4675 47.9801C69.8092 47.879 70.1746 47.893 70.5075 48.0201C70.6037 48.0803 70.6774 48.1705 70.7172 48.2768C70.757 48.3831 70.7606 48.4995 70.7275 48.6081C70.6289 48.8137 70.4772 48.9892 70.288 49.1165C70.0988 49.2437 69.8791 49.3182 69.6515 49.3321C69.1946 49.4335 68.7162 49.3592 68.3115 49.1241C68.2233 49.0651 68.154 48.982 68.1119 48.8847C68.0697 48.7873 68.0565 48.6799 68.0738 48.5752C68.0911 48.4706 68.1382 48.3731 68.2094 48.2946C68.2807 48.216 68.373 48.1596 68.4755 48.1321Z" fill="#263238"/>
<path d="M78.9076 49.5639C78.6056 49.4233 78.3118 49.2657 78.0276 49.0919C77.6964 48.9666 77.4154 48.7362 77.2276 48.4359C77.1855 48.33 77.18 48.2131 77.2118 48.1037C77.2437 47.9943 77.3112 47.8987 77.4036 47.8319C77.606 47.7267 77.833 47.6775 78.0608 47.6895C78.2887 47.7015 78.5092 47.7741 78.6996 47.8999C79.1229 48.095 79.4592 48.4398 79.6436 48.8679C79.6803 48.9691 79.6867 49.0788 79.6619 49.1836C79.6371 49.2883 79.5822 49.3836 79.504 49.4575C79.4258 49.5315 79.3277 49.581 79.2217 49.5999C79.1157 49.6188 79.0065 49.6063 78.9076 49.5639Z" fill="#263238"/>
<path d="M75.8877 52.496C75.8877 52.464 75.9477 52.564 75.9317 52.604C75.6037 53.536 75.3837 54.656 76.1317 55.24C76.1557 55.26 76.1317 55.304 76.1077 55.292C75.1157 54.812 75.4237 53.328 75.8877 52.496Z" fill="#263238"/>
<path d="M77.0399 51.7999C78.5919 52.1679 77.7399 55.2399 76.3039 54.8999C74.8679 54.5599 75.7399 51.4759 77.0399 51.7999Z" fill="#263238"/>
<path d="M77.5998 52.1119C77.8198 52.3599 77.9998 52.7399 78.3118 52.8599C78.6238 52.9799 79.0478 52.7559 79.3758 52.5159C79.4118 52.4919 79.4318 52.5159 79.4198 52.5639C79.2678 53.1559 78.8718 53.6999 78.2198 53.6119C77.6238 53.5319 77.3558 52.8959 77.3718 52.2639C77.3718 52.1479 77.5118 52.0119 77.5998 52.1119Z" fill="#263238"/>
<path d="M70.1283 50.9001C70.1283 50.8601 70.0403 50.9241 70.0323 50.9641C69.8043 51.9241 69.3843 52.9881 68.4323 53.0721C68.4043 53.0721 68.3963 53.1241 68.4323 53.1281C69.5243 53.2641 70.0683 51.8441 70.1283 50.9001Z" fill="#263238"/>
<path d="M69.5441 49.672C68.0401 49.144 67.0961 52.192 68.4881 52.68C69.8801 53.168 70.8001 50.116 69.5441 49.672Z" fill="#263238"/>
<path d="M68.8435 49.6761C68.5555 49.7641 68.2235 49.9841 67.9315 49.9121C67.6395 49.8401 67.4475 49.4241 67.3315 49.0441C67.3315 49.0041 67.2875 49.0241 67.2755 49.0441C67.0795 49.6241 67.0835 50.2881 67.6075 50.5761C68.1315 50.8641 68.6155 50.4521 68.9355 49.9161C68.9915 49.8321 68.9635 49.6401 68.8435 49.6761Z" fill="#263238"/>
<path d="M72.9437 60.0239C72.6597 60.1959 72.3597 60.4519 72.0037 60.4039C71.6465 60.3156 71.3124 60.152 71.0237 59.9239C71.0176 59.9207 71.0106 59.9192 71.0037 59.9198C70.9968 59.9204 70.9902 59.9229 70.9848 59.9271C70.9793 59.9314 70.9751 59.9371 70.9728 59.9436C70.9705 59.9501 70.9701 59.9572 70.9717 59.9639C71.0655 60.1843 71.2174 60.3751 71.4111 60.516C71.6048 60.6569 71.8331 60.7425 72.0717 60.7639C72.2798 60.7575 72.4814 60.6895 72.6509 60.5685C72.8204 60.4474 72.9501 60.2788 73.0237 60.0839C73.0517 60.0359 72.9837 59.9959 72.9437 60.0239Z" fill="#263238"/>
<path d="M69.9678 55.448C69.9678 55.448 69.2878 56.944 69.0958 57.616C70.3605 58.0386 71.6565 58.3609 72.9718 58.58C73.0518 58.58 73.1198 58.284 73.0478 58.264C71.1798 57.684 70.8198 57.564 69.7678 57.28C69.7678 57.08 70.8838 54.984 70.7798 54.944C70.253 54.842 69.7148 54.811 69.1798 54.852C70.3598 51.98 71.9798 49.324 73.1198 46.452C73.1598 46.348 73.0158 46.272 72.9598 46.356C71.0558 49.024 69.6238 52.296 68.3318 55.228C68.1478 55.588 69.6678 55.484 69.9678 55.448Z" fill="#263238"/>
<path d="M87.8603 58.6879C84.4443 57.7439 85.9723 46.9239 86.1723 45.5959C86.0043 46.4239 85.0843 50.7959 84.7083 50.9079C84.341 50.8115 83.9922 50.6547 83.6763 50.4439C83.7992 49.9176 83.8821 49.3828 83.9243 48.8439C83.9523 48.5959 83.7083 49.3479 83.3523 50.2559C83.1683 50.1559 82.9523 50.0399 82.7563 49.9279C83.0622 48.8232 83.2182 47.6823 83.2203 46.5359C83.2203 46.0999 82.6643 47.9279 81.8843 49.4519C79.6603 48.2519 76.4323 46.5799 73.2483 45.7079C72.4003 45.4719 71.6483 45.3079 70.9923 45.1799C71.2923 43.8919 71.7683 42.5559 71.6043 42.8279C71.1627 43.545 70.7916 44.3032 70.4963 45.0919C70.1363 45.0279 69.8003 44.9719 69.5003 44.9319C69.8443 43.0919 71.4003 40.3999 71.0043 40.7759C69.8164 41.9369 68.8583 43.3116 68.1803 44.8279C67.6212 44.8426 67.0634 44.767 66.5283 44.6039C66.6043 44.0079 67.7003 40.4639 72.1643 37.0959C77.6403 32.9639 87.4803 34.3199 90.8283 41.7199C90.8283 41.7199 94.1923 45.2719 93.8203 49.6119C93.4483 53.9519 89.8323 59.2319 87.8603 58.6879Z" fill="#263238"/>
<path d="M85.5995 59.4399C85.5995 59.4399 89.8395 55.8999 91.5235 57.5279C93.2075 59.1559 89.1955 64.8639 86.6355 65.0959C86.3092 65.1484 85.9756 65.1343 85.6549 65.0546C85.3341 64.9748 85.0328 64.8311 84.769 64.6319C84.5053 64.4328 84.2845 64.1824 84.1199 63.8957C83.9554 63.6091 83.8505 63.2922 83.8115 62.9639L85.5995 59.4399Z" fill="#D3766A"/>
<path d="M90.3315 59.1359C90.3675 59.1359 90.3595 59.1959 90.3315 59.1999C88.5235 59.4199 87.2515 60.6999 86.2275 62.1039C86.8755 61.6319 87.6235 61.4799 88.2755 62.2759C88.3115 62.3199 88.2515 62.3759 88.2115 62.3519C87.9495 62.1831 87.6416 62.0993 87.3301 62.1122C87.0186 62.1251 86.7187 62.234 86.4715 62.4239C86.0618 62.7471 85.6865 63.1117 85.3515 63.5119C85.2355 63.6399 84.9915 63.4879 85.0955 63.3359C85.1012 63.3237 85.1094 63.3128 85.1195 63.3039C85.6315 61.2119 88.0395 58.7399 90.3315 59.1359Z" fill="#263238"/>
<path d="M72.3994 36.948C76.2285 35.5568 80.452 35.7336 84.1514 37.44C88.8634 39.596 93.9434 43.236 95.6114 52.168C95.6114 52.168 97.7314 42.216 90.5874 37.208C81.5994 30.92 74.2994 34.924 72.3994 36.948Z" fill="#E74436"/>
<path d="M61.5156 67.9799C61.5156 67.9799 63.4356 64.3799 66.0676 66.1159C68.6996 67.8519 66.1556 71.0319 66.1556 71.0319L61.5156 67.9799Z" fill="#FF9CBD"/>
<path d="M66.2437 70.8974L61.6055 67.8459L45.8735 91.7591L50.5118 94.8105L66.2437 70.8974Z" fill="#E74436"/>
<path d="M66.7226 71.0246L61.3057 67.4609L60.6813 68.41L66.0982 71.9736L66.7226 71.0246Z" fill="#37474F"/>
<path d="M66.0263 72.0751L60.6094 68.5115L59.985 69.4605L65.4019 73.0242L66.0263 72.0751Z" fill="#37474F"/>
<path d="M50.5159 94.8119L46.8279 96.5999L45.6279 97.1959L45.6879 95.8399L45.8839 91.7399L46.7439 91.4519C46.7439 91.4519 46.8079 92.3359 46.8119 92.3519L47.6759 92.0639C47.6759 92.0639 47.7399 92.9439 47.7439 92.9599L48.5919 92.6679C48.5919 92.6679 48.6679 93.5559 48.6719 93.5719L49.5239 93.2799L49.5999 94.1999L50.4519 93.9079C50.4519 93.9079 50.5119 94.7959 50.5159 94.8119Z" fill="#EBEBEB"/>
<path d="M46.8282 96.616L45.6162 97.212L45.6762 95.856L46.8282 96.616Z" fill="#37474F"/>
<g opacity="0.1">
<path d="M47.8916 90.7001C48.8956 89.0641 49.9236 87.4441 50.9596 85.8281L54.0916 81.0001L57.2916 76.2001C58.3676 74.6001 59.4476 73.0241 60.5516 71.4561C59.5516 73.0921 58.5196 74.7121 57.4876 76.3281L54.3516 81.1561L51.1516 85.9561C50.0756 87.5441 48.9996 89.1321 47.8916 90.7001Z" fill="black"/>
<path d="M49.2832 91.628C50.2872 89.988 51.3152 88.372 52.3512 86.756L55.4832 81.928L58.6832 77.128C59.7592 75.528 60.8392 73.952 61.9432 72.384C60.9432 74.02 59.9112 75.636 58.8792 77.252L55.7432 82.08L52.5432 86.88C51.4672 88.472 50.3992 90.056 49.2832 91.628Z" fill="black"/>
<path d="M50.6758 92.552C51.6798 90.916 52.7118 89.296 53.7438 87.68L56.8798 82.856L60.0798 78.056C61.1518 76.456 62.2318 74.88 63.3358 73.312C62.3358 74.952 61.3038 76.568 60.2718 78.184L57.1358 83.012L53.9358 87.812C52.8598 89.4 51.7838 91 50.6758 92.552Z" fill="black"/>
</g>
<path d="M92.896 86.144C97.624 97.556 104.804 121.452 99.4281 128.976C94.2481 136.228 64.6921 119.928 58.6961 116.576C56.2361 115.208 62.7921 94.116 65.5801 95.244C71.7081 97.728 84.2 106.284 84.532 106.128C84.864 105.972 84.4121 96.32 84.3401 86.8C84.2361 72.964 89.5 77.94 92.896 86.144Z" fill="#D3766A"/>
<path d="M48.0959 81.9801C46.0559 83.6921 47.8599 85.7721 47.8599 85.7721C46.703 85.7419 45.5716 86.1152 44.6599 86.8281C43.1079 88.1681 44.5279 91.1881 44.5279 91.1881C43.3195 91.4074 42.2048 91.9843 41.3279 92.8441C39.9719 94.2721 40.9679 97.5241 40.9679 97.5241C39.9651 98.3396 39.2881 99.4878 39.0599 100.76C38.5919 104.184 42.6199 107.592 45.1959 109.74C49.0239 112.94 57.0319 115.692 58.7279 116.588L72.7999 100.316C72.7999 100.316 63.9999 87.5161 60.7559 85.1721C57.4519 82.7921 50.1039 80.2961 48.0959 81.9801Z" fill="#D3766A"/>
<path d="M48.1997 85.6081C51.6717 86.8081 54.5997 88.9401 57.6557 90.9161C57.7237 90.9601 57.6557 91.0681 57.5837 91.0241C54.5757 89.0241 51.1837 87.6441 48.1237 85.7641C48.1068 85.752 48.0947 85.7343 48.0896 85.7141C48.0845 85.694 48.0867 85.6726 48.0958 85.654C48.1049 85.6353 48.1203 85.6204 48.1394 85.612C48.1584 85.6036 48.1798 85.6022 48.1997 85.6081Z" fill="#263238"/>
<path d="M44.7482 91.0201C45.5104 91.3662 46.2244 91.8099 46.8722 92.3401C47.5922 92.8601 48.3016 93.3934 49.0002 93.9401C50.4082 95.0281 51.7856 96.1481 53.1322 97.3001C53.1922 97.3521 53.1322 97.4561 53.0642 97.4081C51.6602 96.3281 50.2642 95.2681 48.7962 94.2481C48.0709 93.7387 47.3442 93.2347 46.6162 92.7361C45.8969 92.3089 45.2262 91.8046 44.6162 91.2321C44.5955 91.2117 44.5824 91.1848 44.579 91.156C44.5756 91.1271 44.5821 91.0979 44.5975 91.0733C44.6128 91.0486 44.6361 91.0299 44.6635 91.0202C44.6909 91.0106 44.7208 91.0105 44.7482 91.0201Z" fill="#263238"/>
<path d="M41.0001 97.5679C41.6841 97.7959 42.2921 98.4119 42.8481 98.8599C43.4748 99.3693 44.1068 99.8746 44.7441 100.376C46.0161 101.376 47.2841 102.376 48.5881 103.332C48.6561 103.38 48.5882 103.484 48.5202 103.436C47.1882 102.472 45.8481 101.524 44.5201 100.548C43.8721 100.068 43.2242 99.5839 42.5842 99.0999C42.0362 98.6999 41.3042 98.2279 40.9402 97.6319C40.9242 97.5999 40.9641 97.5599 41.0001 97.5679Z" fill="#263238"/>
<path d="M72.9316 98.2001L61.5996 120.02C61.5996 120.02 87.0316 132.136 95.9996 130.936C104.968 129.736 100.8 112.628 100.256 108.772C99.8556 106.016 95.1676 89.3521 91.5036 82.5761C87.8396 75.8001 84.6036 75.6841 84.0996 84.9121C83.5956 94.1401 84.3476 105.352 83.9756 105.184C83.6036 105.016 72.9316 98.2001 72.9316 98.2001Z" fill="#455A64"/>
<path d="M88.2681 97.128C87.5991 97.3728 86.9687 97.7122 86.3961 98.1359C87.8169 97.9874 89.1747 97.4719 90.3361 96.64C89.6269 96.7028 88.9305 96.8671 88.2681 97.128ZM76.3401 121.528C75.672 121.773 75.0418 122.111 74.4681 122.532C75.8889 122.383 77.2467 121.868 78.4081 121.036C77.6982 121.104 77.0017 121.274 76.3401 121.54V121.528ZM95.7921 121.076C95.124 121.321 94.4938 121.659 93.9201 122.08C94.6329 122.021 95.3334 121.859 96.0001 121.6C96.6696 121.358 97.3003 121.02 97.8721 120.596C97.1587 120.659 96.4581 120.825 95.7921 121.088V121.076ZM86.9001 113.208C86.6583 112.538 86.3201 111.908 85.8961 111.336C86.0446 112.757 86.5602 114.115 87.3921 115.276C87.3287 114.57 87.1629 113.878 86.9001 113.22V113.208ZM70.5321 113.14C69.8866 112.839 69.2008 112.633 68.4961 112.528C69.0442 112.983 69.6543 113.357 70.3081 113.64C70.9535 113.943 71.6392 114.15 72.3441 114.256C71.7944 113.805 71.1845 113.434 70.5321 113.152V113.14ZM97.3321 108.908C96.6884 108.605 96.0038 108.399 95.3001 108.296C95.8462 108.752 96.4551 109.126 97.1081 109.408C97.7543 109.708 98.4398 109.916 99.1441 110.024C98.6003 109.573 97.9957 109.202 97.3481 108.92L97.3321 108.908ZM91.3761 85.7079C90.7311 85.409 90.0469 85.203 89.3441 85.0959C89.89 85.5528 90.499 85.9287 91.1521 86.212C91.7985 86.5109 92.484 86.7169 93.1881 86.824C92.6443 86.3691 92.0399 85.9921 91.3921 85.704L91.3761 85.7079ZM85.2561 127.472C85.0144 128.006 84.8294 128.564 84.7041 129.136L84.8961 129.192C85.2356 128.726 85.5252 128.226 85.7601 127.7C86.0585 127.053 86.2645 126.368 86.3721 125.664C85.9166 126.211 85.5408 126.82 85.2561 127.472ZM78.2561 101.608C77.8792 102.102 77.5623 102.639 77.3121 103.208C77.0101 103.852 76.8026 104.537 76.6961 105.24C77.153 104.694 77.5288 104.085 77.8121 103.432C78.0669 102.871 78.2575 102.284 78.3801 101.68L78.2561 101.608Z" fill="#37474F"/>
<path d="M83.9997 104.88C85.0945 106.072 86.0723 107.365 86.9197 108.744C87.7495 110.061 88.5105 111.42 89.1997 112.816C89.1997 112.848 89.1357 112.864 89.1157 112.816C88.3157 111.48 87.3517 110.176 86.4677 108.86C85.5837 107.544 84.5557 106.272 83.7597 104.936C83.7077 104.864 83.9317 104.804 83.9997 104.88Z" fill="#263238"/>
<path d="M96.5954 95.6079C97.2634 98.3559 99.9074 107.852 100.375 110.636C100.891 113.41 101.216 116.217 101.347 119.036C101.394 120.43 101.337 121.826 101.179 123.212C101.052 124.587 100.72 125.935 100.195 127.212C99.6941 128.448 98.752 129.454 97.5514 130.036C96.2986 130.539 94.943 130.732 93.5994 130.6C90.8434 130.444 88.1234 129.648 85.4354 128.832C82.7474 128.016 80.0914 127.04 77.4354 126.08C74.7794 125.12 72.1394 124.124 69.5074 123.092C66.8754 122.06 64.2394 121.04 61.6234 119.976L61.6434 120.044L62.3474 118.588L61.5474 120L61.5234 120.044L61.5714 120.064C64.1394 121.264 66.7194 122.412 69.3194 123.52C71.9194 124.628 74.5434 125.7 77.1794 126.72C79.8154 127.74 82.4874 128.7 85.1794 129.572C87.8714 130.444 90.6274 131.28 93.5354 131.436C95.0193 131.553 96.5096 131.31 97.8794 130.728C98.5686 130.404 99.185 129.944 99.6914 129.376C100.19 128.814 100.595 128.175 100.891 127.484C101.433 126.134 101.773 124.712 101.899 123.264C102.051 121.848 102.085 120.422 101.999 119C101.339 109.556 98.2354 101.02 96.5954 95.6079Z" fill="#263238"/>
<path d="M83.9201 90.332C83.8721 91.496 83.8641 92.656 83.8321 93.82L83.8001 97.304C83.7681 99.628 83.8001 101.956 83.7481 104.264L83.7281 104.692V104.896V104.992V105.024L83.7521 104.976C83.7898 104.919 83.8466 104.878 83.9121 104.86H83.9561C83.9824 104.854 84.0098 104.854 84.0361 104.86H84.0721H84.0521L83.9761 104.82L83.7921 104.724L83.4201 104.512C82.9241 104.22 82.4281 103.916 81.9361 103.612L78.9601 101.8L75.9801 99.996L72.9481 98.2H72.9201V98.228L72.7041 98.708L72.9721 98.256H72.9281C73.8761 98.936 74.8241 99.608 75.7841 100.256L78.6721 102.208C79.6401 102.856 80.6161 103.48 81.5961 104.112C82.0921 104.42 82.5841 104.728 83.0881 105.028L83.4681 105.252L83.6721 105.36C83.7087 105.383 83.7476 105.401 83.7881 105.416H83.8161H83.8401L83.9001 105.436C83.9439 105.442 83.9883 105.442 84.0321 105.436H84.1041C84.1749 105.407 84.236 105.359 84.2801 105.296L84.3121 105.24V105.204C84.3138 105.187 84.3138 105.169 84.3121 105.152V105.076V104.956V104.724V104.28C84.3481 101.944 84.3121 99.624 84.2121 97.3L84.0641 93.812C84.0681 92.652 84.0001 91.492 83.9201 90.332Z" fill="#263238"/>
<path d="M71.3514 113.728C72.6354 111.22 73.9034 108.7 75.2874 106.236C76.0874 104.84 76.8474 103.436 77.6474 102.044C77.6794 101.992 77.7714 102.044 77.7474 102.092C76.5474 104.66 75.3474 107.232 74.0434 109.748C72.7394 112.264 71.4594 114.764 70.1234 117.248C69.3634 118.664 68.5634 120.048 67.7234 121.416C67.7234 121.44 67.6594 121.416 67.6714 121.388C68.7674 118.78 70.0514 116.256 71.3514 113.728Z" fill="#263238"/>
<path d="M83.0078 93.072C83.1898 94.4344 83.5101 95.7746 83.9638 97.072C83.88 96.3906 83.7558 95.7147 83.5918 95.048C83.4344 94.3789 83.2394 93.7192 83.0078 93.072Z" fill="#263238"/>
<path d="M70.7044 76.2001C70.7044 76.2001 70.0884 82.8241 73.9244 83.1641C77.7604 83.5041 83.6484 78.1641 86.0244 76.2001C83.6324 74.2937 80.6114 73.3557 77.5604 73.5721C73.0324 73.8241 70.7044 76.2001 70.7044 76.2001Z" fill="#D3766A"/>
<path d="M89.867 142.588H44.915V144.604H89.867V142.588Z" fill="#A6A6A6"/>
<path d="M89.8633 142.588H67.2393V144.604H89.8633V142.588Z" fill="#C7C7C7"/>
<path d="M63.6035 144.6H19.7955L13.6035 114.848H57.4155L63.6035 144.6Z" fill="#C7C7C7"/>
<path d="M41.9993 130.388C42.0484 130.757 42.0172 131.132 41.9076 131.488C41.7981 131.843 41.613 132.171 41.3648 132.449C41.1167 132.726 40.8115 132.946 40.4701 133.095C40.1288 133.243 39.7594 133.316 39.3873 133.308C38.5883 133.29 37.8224 132.985 37.2297 132.449C36.637 131.913 36.2571 131.181 36.1593 130.388C36.1101 130.019 36.1415 129.643 36.2512 129.287C36.361 128.931 36.5465 128.603 36.7951 128.326C37.0437 128.048 37.3494 127.828 37.6912 127.68C38.033 127.532 38.4029 127.459 38.7753 127.468C39.5741 127.485 40.3399 127.79 40.9321 128.326C41.5243 128.863 41.9032 129.595 41.9993 130.388Z" fill="white"/>
<path d="M3.57565 99.3998C3.0481 100.941 2.95977 102.599 3.32054 104.187C3.68131 105.776 4.47695 107.233 5.61847 108.395C6.75998 109.558 8.20234 110.379 9.78422 110.769C11.3661 111.158 13.0251 111.099 14.5757 110.6L18.2917 113L17.8917 108.632C18.8655 107.719 19.6186 106.597 20.0937 105.35C20.5688 104.103 20.7533 102.764 20.6334 101.435C20.5134 100.106 20.0921 98.8218 19.4014 97.6799C18.7107 96.5381 17.7688 95.5688 16.6473 94.8456C15.5258 94.1223 14.2542 93.6643 12.9291 93.5062C11.6041 93.3481 10.2604 93.4941 9.00021 93.9332C7.74004 94.3722 6.59653 95.0927 5.65657 96.04C4.71662 96.9872 4.00495 98.1363 3.57565 99.3998Z" fill="#E74436"/>
<path d="M9.4669 99.0998L8.62402 99.9426L14.295 105.614L15.1379 104.771L9.4669 99.0998Z" fill="white"/>
<path d="M15.1358 99.9432L14.293 99.1003L8.62197 104.771L9.46484 105.614L15.1358 99.9432Z" fill="white"/>
<path d="M40.504 25.6519C40.5464 27.7852 41.181 29.8648 42.337 31.6583C43.493 33.4517 45.1248 34.8885 47.0503 35.808C48.9757 36.7276 51.1188 37.0937 53.2404 36.8656C55.3619 36.6374 57.3782 35.8239 59.064 34.5159L64.732 35.8399L62.276 30.6399C63.1403 28.9536 63.5706 27.0784 63.528 25.1839C63.522 23.6556 63.2118 22.1437 62.6156 20.7365C62.0193 19.3292 61.1489 18.0547 60.0551 16.9873C58.9613 15.9198 57.6659 15.0808 56.2445 14.5191C54.8231 13.9574 53.3041 13.6842 51.7761 13.7156C50.248 13.7469 48.7415 14.0821 47.3443 14.7015C45.9471 15.321 44.6872 16.2124 43.6381 17.3238C42.5889 18.4352 41.7715 19.7443 41.2334 21.1748C40.6953 22.6053 40.4474 24.1286 40.504 25.6559V25.6519Z" fill="white"/>
<path d="M40.5038 25.6519C40.5583 27.7852 41.2021 29.8618 42.3638 31.6519C42.6505 32.096 42.9658 32.5209 43.3078 32.9239C43.6595 33.3197 44.0363 33.6924 44.4358 34.0399C44.8305 34.3913 45.2503 34.7135 45.6918 35.0039C45.9078 35.1559 46.1478 35.2719 46.3718 35.4039L46.7158 35.5999C46.8318 35.6639 46.9558 35.7119 47.0758 35.7679C48.0302 36.2179 49.0426 36.533 50.0838 36.7039C50.6038 36.7871 51.1292 36.8325 51.6558 36.8399C52.1818 36.8633 52.7088 36.8446 53.2318 36.7839C55.3293 36.5435 57.3183 35.7235 58.9758 34.4159L59.0278 34.3759H59.0958L64.7718 35.6679L64.5718 35.9119L62.1038 30.7119L62.0638 30.6279L62.1038 30.5439C62.8793 29.0074 63.3003 27.3166 63.3358 25.5959C63.3675 23.872 63.0064 22.1635 62.2798 20.5999C61.544 19.0414 60.4764 17.6625 59.1518 16.5599C57.8147 15.4627 56.2438 14.6868 54.5598 14.2919C52.8701 13.8907 51.1115 13.8771 49.4158 14.2519C47.7195 14.6456 46.1328 15.4136 44.7718 16.4999C43.413 17.6019 42.3226 18.9985 41.5832 20.5841C40.8438 22.1697 40.4747 23.9026 40.5038 25.6519ZM40.5038 25.6519C40.4651 23.8978 40.826 22.158 41.5592 20.564C42.2924 18.9701 43.3787 17.5639 44.7358 16.4519C46.0889 15.3255 47.6832 14.5257 49.3951 14.1143C51.107 13.703 52.8906 13.6912 54.6078 14.0799C56.3367 14.4564 57.9557 15.2256 59.3398 16.3279C60.7239 17.4388 61.8385 18.8487 62.5998 20.4519C63.3624 22.0587 63.7453 23.8193 63.719 25.5976C63.6926 27.376 63.2577 29.1244 62.4478 30.7079V30.5399L64.8878 35.7399L65.0438 36.0679L64.6878 35.9839L59.0278 34.6279L59.1478 34.5999C57.436 35.9104 55.3929 36.7179 53.2478 36.9319C52.7161 36.9845 52.1811 36.9952 51.6478 36.9639C51.1113 36.949 50.5766 36.8955 50.0478 36.8039C48.9992 36.613 47.9817 36.2792 47.0238 35.8119C46.064 35.3498 45.1751 34.7531 44.3838 34.0399C43.9855 33.6896 43.6101 33.3142 43.2598 32.9159C42.919 32.5087 42.605 32.0798 42.3198 31.6319C41.1769 29.8431 40.5486 27.7742 40.5038 25.6519Z" fill="#263238"/>
<path d="M50.0238 27.4399C50.0155 26.9583 50.1025 26.4798 50.2798 26.0319C50.5016 25.5623 50.873 25.1796 51.3358 24.9439C51.4958 24.8479 51.6958 24.7359 51.9278 24.6159C52.1698 24.4879 52.4012 24.3407 52.6198 24.1759C52.8399 24.0074 53.0316 23.8049 53.1878 23.5759C53.3434 23.3384 53.4242 23.0598 53.4198 22.7759C53.4233 22.5714 53.3795 22.3688 53.2918 22.1839C53.2074 22.0205 53.0934 21.874 52.9558 21.7519C52.8113 21.6339 52.6457 21.5443 52.4678 21.4879C52.2829 21.4292 52.0899 21.3995 51.8958 21.3999C51.6767 21.3973 51.4592 21.4381 51.2558 21.5199C51.0699 21.5981 50.8951 21.7003 50.7358 21.8239C50.5899 21.944 50.4559 22.0779 50.3358 22.2239C50.2233 22.3643 50.1191 22.5113 50.0238 22.6639L48.6318 21.7039C48.7653 21.3818 48.9519 21.0843 49.1838 20.8239C49.4159 20.5684 49.6857 20.3498 49.9838 20.1759C50.281 19.999 50.6014 19.8643 50.9358 19.7759C51.2804 19.6845 51.6354 19.6388 51.9918 19.6399C52.3983 19.6391 52.8027 19.6984 53.1918 19.8159C53.5801 19.9303 53.9418 20.1206 54.2558 20.3759C54.581 20.6436 54.8432 20.9795 55.0238 21.3599C55.2306 21.8084 55.3319 22.2982 55.3198 22.7919C55.3247 23.0988 55.2843 23.4048 55.1998 23.6999C55.122 23.9534 55.006 24.1934 54.8558 24.4119C54.7058 24.6262 54.5283 24.8198 54.3278 24.9879C54.1095 25.168 53.8797 25.3337 53.6398 25.4839C53.4238 25.6119 53.2118 25.7359 52.9998 25.8519C52.7926 25.9659 52.597 26.0999 52.4158 26.2519C52.2427 26.3905 52.0951 26.5584 51.9798 26.7479C51.8631 26.9551 51.805 27.1902 51.8118 27.4279L50.0238 27.4399ZM50.0558 31.1719V28.9599H51.8318V31.1719H50.0558Z" fill="#E74436"/>
</svg>
