<svg width="130" height="28" viewBox="0 0 130 28" fill="none" xmlns="http://www.w3.org/2000/svg">
<path d="M0.911133 11.7235C0.911133 6.0386 5.67913 1.4086 11.3744 1.4086C12.6833 1.3867 13.9834 1.6268 15.1982 2.1148C16.4129 2.6028 17.5178 3.3288 18.4478 4.2502L16.4498 6.2386C15.0893 4.9273 13.2665 4.2055 11.377 4.2301C7.22913 4.2301 3.98673 7.5703 3.98673 11.727C3.98673 15.8836 7.22393 19.2221 11.377 19.2221C14.0675 19.2221 15.6001 18.141 16.5816 17.1586C17.3868 16.3526 17.9134 15.1929 18.1151 13.621H11.3744V10.7917H20.8527C20.9602 11.3752 21.0108 11.9677 21.0038 12.5609C21.0038 14.6733 20.4266 17.2887 18.5648 19.1514C16.7502 21.0297 14.4361 22.0261 11.3744 22.0261C5.67913 22.0261 0.911133 17.4083 0.911133 11.7217" fill="#202124"/>
<path d="M28.6602 19.4186C26.6517 19.4186 24.9157 17.7594 24.9157 15.3937C24.9157 13.0281 26.6491 11.3698 28.6602 11.3698C30.6713 11.3698 32.4021 13.0045 32.4021 15.3972C32.4021 17.79 30.6687 19.4203 28.6602 19.4203V19.4186ZM28.6602 8.75609C24.9925 8.75609 21.999 11.5506 21.999 15.3929C21.999 19.2352 24.9899 22.0252 28.6602 22.0252C32.3305 22.0252 35.3222 19.2072 35.3222 15.3885C35.3222 11.5698 32.3278 8.75439 28.6602 8.75439V8.75609Z" fill="#202124"/>
<path d="M43.1904 19.4186C41.1819 19.4186 39.445 17.7594 39.445 15.3937C39.445 13.0281 41.1792 11.3698 43.1904 11.3698C45.2015 11.3698 46.9357 13.0045 46.9357 15.3972C46.9357 17.79 45.2015 19.4238 43.1904 19.4238V19.4186ZM43.1904 8.75959C39.5227 8.75959 36.5283 11.554 36.5283 15.3964C36.5283 19.2387 39.5201 22.0287 43.1904 22.0287C46.8606 22.0287 49.8524 19.2107 49.8524 15.392C49.8524 11.5733 46.8606 8.75439 43.1904 8.75439V8.75959Z" fill="#202124"/>
<path d="M68.7224 2.11426H65.8057V21.6332H68.7224V2.11426Z" fill="#202124"/>
<path d="M68.7224 2.11426H65.8057V21.6332H68.7224V2.11426Z" fill="#202124"/>
<path d="M76.4912 11.3207C77.6483 11.3207 78.6281 11.8979 78.9538 12.7292L73.0218 15.1935C72.945 12.627 75.0084 11.3207 76.4912 11.3207ZM76.7166 19.4201C75.232 19.4201 74.1771 18.7407 73.4995 17.4116L82.3751 13.7378L82.0761 12.9894C81.5231 11.5049 79.8402 8.76465 76.3952 8.76465C72.9502 8.76465 70.1357 11.4569 70.1357 15.4014C70.1357 19.124 72.952 22.0381 76.7227 22.0381C77.8167 22.0437 78.8949 21.7774 79.8604 21.2629C80.8259 20.7484 81.6481 20.002 82.2541 19.0909L79.9913 17.5819C79.2307 18.6857 78.1994 19.4201 76.7166 19.4201Z" fill="#202124"/>
<path d="M57.6896 19.4205C55.6812 19.4205 53.994 17.7351 53.994 15.4219C53.994 13.1086 55.6785 11.3717 57.6896 11.3717C59.7007 11.3717 61.2246 13.0815 61.2246 15.4219C61.2246 17.7622 59.6719 19.4205 57.6862 19.4205H57.6896ZM61.0255 9.15705V10.2365H60.925C60.271 9.45055 59.0144 8.75195 57.432 8.75195C54.1137 8.75195 51.0713 11.6704 51.0713 15.4184C51.0713 19.1664 54.1128 22.0263 57.432 22.0263C59.0152 22.0263 60.2719 21.3277 60.925 20.5173H61.0255V21.4726C61.0255 24.0129 59.6684 25.3708 57.4897 25.3708C55.7047 25.3708 54.5992 24.088 54.1512 23.0131L51.6118 24.0706C52.0895 25.2388 52.906 26.2373 53.956 26.9376C55.006 27.638 56.2415 28.0079 57.5036 28.0002C60.9233 28.0002 63.8138 25.9917 63.8138 21.0832V9.15705H61.0255Z" fill="#202124"/>
<path d="M100.883 2.08545H91.04V21.6629H100.883V2.08545Z" fill="#428EFF"/>
<path d="M119.141 21.9728C124.719 21.9728 129.24 17.4512 129.24 11.8736C129.24 6.29601 124.719 1.77441 119.141 1.77441C113.563 1.77441 109.042 6.29601 109.042 11.8736C109.042 17.4512 113.563 21.9728 119.141 21.9728Z" fill="#428EFF"/>
<path d="M104.111 23.7473H102.214L107.614 0H109.512L104.111 23.7473Z" fill="#202124"/>
</svg>
